<mxfile host="65bd71144e">
    <diagram id="KPJ3l2MkosEHmAZDCI1j" name="Page-1">
        <mxGraphModel dx="1868" dy="851" grid="1" gridSize="5" guides="1" tooltips="1" connect="1" arrows="1" fold="1" page="0" pageScale="1" pageWidth="850" pageHeight="1100" math="0" shadow="0">
            <root>
                <mxCell id="0"/>
                <mxCell id="1" parent="0"/>
                <mxCell id="2" value="" style="rounded=0;whiteSpace=wrap;html=1;fillColor=#333333;strokeColor=default;fillStyle=auto;" vertex="1" parent="1">
                    <mxGeometry x="85" y="140" width="800" height="450" as="geometry"/>
                </mxCell>
                <mxCell id="13" value="&lt;font color=&quot;#ffffff&quot;&gt;&lt;span style=&quot;font-size: 22px;&quot;&gt;媒体预览画面&lt;/span&gt;&lt;/font&gt;" style="shape=note;whiteSpace=wrap;html=1;backgroundOutline=1;darkOpacity=0.05;strokeColor=default;fillColor=#1A1A1A;fillStyle=hatch;" vertex="1" parent="1">
                    <mxGeometry x="130" y="220" width="535" height="300" as="geometry"/>
                </mxCell>
                <mxCell id="39" value="" style="rounded=0;whiteSpace=wrap;html=1;fillStyle=hatch;" vertex="1" parent="1">
                    <mxGeometry x="725" y="220" width="160" height="300" as="geometry"/>
                </mxCell>
                <mxCell id="40" value="1. 顶部展示当前浏览的文件夹&lt;br&gt;2. 按 BACK 键返回上一级&lt;br&gt;3. 主要区域展示当前文件夹中的媒体文件&lt;br&gt;4. 媒体文件使用水平布局&lt;br&gt;5. 左右滚动，用滚动条展示进度&lt;br&gt;6. 子目录以相同方式展示，图标不同" style="text;html=1;strokeColor=#b46504;fillColor=#fad7ac;align=left;verticalAlign=top;whiteSpace=wrap;rounded=0;fontColor=#1A1A1A;fontSize=22;spacingLeft=10;spacingBottom=10;spacingRight=10;spacing=10;" vertex="1" parent="1">
                    <mxGeometry x="935" y="140" width="440" height="455" as="geometry"/>
                </mxCell>
                <mxCell id="41" value="" style="rounded=0;whiteSpace=wrap;html=1;fillColor=#647687;strokeColor=default;fontColor=#ffffff;" vertex="1" parent="1">
                    <mxGeometry x="85" y="560" width="800" height="30" as="geometry"/>
                </mxCell>
                <mxCell id="42" value="" style="rounded=1;whiteSpace=wrap;html=1;fillColor=#b1ddf0;strokeColor=none;" vertex="1" parent="1">
                    <mxGeometry x="230" y="560" width="120" height="30" as="geometry"/>
                </mxCell>
                <mxCell id="43" value="当前浏览的文件夹" style="text;html=1;strokeColor=#666666;fillColor=#f5f5f5;align=center;verticalAlign=middle;whiteSpace=wrap;rounded=0;fillStyle=auto;fontSize=22;fontColor=#333333;" vertex="1" parent="1">
                    <mxGeometry x="85" y="140" width="800" height="50" as="geometry"/>
                </mxCell>
                <mxCell id="45" value="" style="rounded=0;whiteSpace=wrap;html=1;fillStyle=solid;strokeColor=none;fontSize=22;fontColor=#FFFFFF;fillColor=#FFFFFF;opacity=50;" vertex="1" parent="1">
                    <mxGeometry x="130" y="480" width="535" height="40" as="geometry"/>
                </mxCell>
                <mxCell id="46" value="媒体文件名" style="text;html=1;strokeColor=none;fillColor=#FFFF99;align=center;verticalAlign=middle;whiteSpace=wrap;rounded=0;fillStyle=solid;fontSize=18;fontColor=#FFFFFF;opacity=10;" vertex="1" parent="1">
                    <mxGeometry x="130" y="480" width="535" height="40" as="geometry"/>
                </mxCell>
            </root>
        </mxGraphModel>
    </diagram>
</mxfile>
